<svg xmlns="http://www.w3.org/2000/svg" width="32" height="32" viewBox="0 0 22 22">
    <g transform="translate(.025 .025)">
        <circle cx="10" cy="10" r="10" fill="none" stroke="#fff" stroke-linecap="round" stroke-miterlimit="10" transform="translate(.975 .975)"/>
        <path fill="none" d="M0 0H22V22H0z" transform="translate(-.025 -.025)"/>
        <path fill="#fff" d="M18.013 19.773a18.19 18.19 0 0 1-.04-1.853 3.626 3.626 0 0 0 .994-2.151c.253-.021.651-.267.767-1.24a.908.908 0 0 0-.339-.909c.411-1.236 1.265-5.06-1.579-5.455a2.236 2.236 0 0 0-2.016-.774c-3.9.072-4.366 2.942-3.512 6.229a.91.91 0 0 0-.339.909c.117.973.515 1.219.767 1.24a3.618 3.618 0 0 0 1.017 2.151 18.194 18.194 0 0 1-.04 1.853c-.555 1.492-3.4 1.608-5.049 3.047a10.759 10.759 0 0 0 7.444 2.969c2.94 0 6.395-2.321 6.97-2.954-1.632-1.452-4.488-1.565-5.045-3.062z" transform="translate(-4.868 -4.165)"/>
    </g>
</svg>
