<svg xmlns="http://www.w3.org/2000/svg" xmlns:xlink="http://www.w3.org/1999/xlink" width="26" height="26" viewBox="0 0 26 26">
  <defs>
    <clipPath id="clip-dien_dan">
      <rect width="26" height="26"/>
    </clipPath>
  </defs>
  <g id="dien_dan" data-name="dien dan" clip-path="url(#clip-dien_dan)">
    <g id="Group_5874" data-name="Group 5874" transform="translate(-4.487 -873.169)">
      <g id="Group_5873" data-name="Group 5873" transform="translate(7.486 879.167)">
        <g id="Group_5865" data-name="Group 5865" transform="translate(0 0)">
          <ellipse id="Ellipse_2" data-name="Ellipse 2" cx="2.622" cy="3.139" rx="2.622" ry="3.139" transform="translate(7.63)" fill="#1acbfc"/>
          <ellipse id="Ellipse_3" data-name="Ellipse 3" cx="2.097" cy="2.511" rx="2.097" ry="2.511" transform="translate(13.882 1.083)" fill="#1acbfc"/>
          <path id="Path_8" data-name="Path 8" d="M-81.794,1093.14Z" transform="translate(100.461 -1086.248)" fill="#1acbfc"/>
          <path id="Path_9" data-name="Path 9" d="M-81.794,1094.93Z" transform="translate(100.461 -1087.618)" fill="#1acbfc"/>
          <path id="Subtraction_3" data-name="Subtraction 3" d="M5.7,5.369H2.715a2.961,2.961,0,0,0-.126-.629A8.922,8.922,0,0,0,0,.659,3.07,3.07,0,0,1,2.1,0C4.191.057,5.966,1.845,6.368,4.3a1.039,1.039,0,0,1-.144.761.642.642,0,0,1-.528.308Z" transform="translate(13.877 7.545)" fill="#1acbfc"/>
          <path id="Subtraction_4" data-name="Subtraction 4" d="M3.915,11.832H.692a.645.645,0,0,1-.524-.313,1.039,1.039,0,0,1-.144-.761C.426,8.3,2.2,6.514,4.289,6.458A3.309,3.309,0,0,1,6.5,7.24a9.031,9.031,0,0,0-2.45,3.96,2.958,2.958,0,0,0-.129.63Zm.37-6.809a2.332,2.332,0,0,1-2.1-2.511A2.332,2.332,0,0,1,4.285,0a2.332,2.332,0,0,1,2.1,2.51A2.335,2.335,0,0,1,4.285,5.023Z" transform="translate(-0.005 1.083)" fill="#1acbfc"/>
          <path id="Path_7" data-name="Path 7" d="M-141.492,1103.41a1.517,1.517,0,0,0,1.162-.891,2.129,2.129,0,0,0,.074-1.65,5.609,5.609,0,0,0-4.927-4.364,5.608,5.608,0,0,0-4.927,4.364,2.129,2.129,0,0,0,.074,1.65,1.517,1.517,0,0,0,1.162.891Z" transform="translate(155.437 -1088.82)" fill="#1acbfc"/>
        </g>
      </g>
    </g>
  </g>
</svg>
