<svg xmlns="http://www.w3.org/2000/svg" xmlns:xlink="http://www.w3.org/1999/xlink" width="26" height="26" viewBox="0 0 26 26">
  <defs>
    <clipPath id="clip-Kham_pha">
      <rect width="26" height="26"/>
    </clipPath>
  </defs>
  <g id="Kham_pha" data-name="Kham pha" clip-path="url(#clip-Kham_pha)">
    <g id="launch" transform="translate(2.984 3.004)">
      <path id="Path_14185" data-name="Path 14185" d="M7.728,309.487a3.9,3.9,0,0,1-1.022,1.775C5.537,312.42,1.213,313.8.73,313.945a.561.561,0,0,1-.55-.145.574.574,0,0,1-.146-.562c.146-.472,1.537-4.784,2.694-5.953A3.9,3.9,0,0,1,4.5,306.262l1.607,1.607Z" transform="translate(0 -293.966)" fill="#ffe470"/>
      <g id="Group_5824" data-name="Group 5824" transform="translate(0.18 13.555)">
        <path id="Path_14186" data-name="Path 14186" d="M10.416,349.172l1.618,1.618a3.9,3.9,0,0,1-1.023,1.775c-1.169,1.157-5.492,2.537-5.975,2.683a.561.561,0,0,1-.551-.146Z" transform="translate(-4.486 -348.824)" fill="#ffd400"/>
        <path id="Path_14187" data-name="Path 14187" d="M102.6,340.822l-1.584,1.6a.6.6,0,0,1-.393.157.61.61,0,0,1-.4-.157v-.011a.563.563,0,0,1,0-.787l1.6-1.584a.53.53,0,0,1,.775,0h.011a.543.543,0,0,1-.009.782Z" transform="translate(-96.475 -339.867)" fill="#ffd400"/>
      </g>
      <path id="Path_14188" data-name="Path 14188" d="M106.712,344.369a.543.543,0,0,1,0,.787l-1.584,1.6a.6.6,0,0,1-.393.157.61.61,0,0,1-.4-.157v-.011l2.371-2.371Z" transform="translate(-100.217 -330.832)" fill="#fdbf00"/>
      <path id="Path_14189" data-name="Path 14189" d="M35.377,147.547a5.807,5.807,0,0,0-5.351,3.486.562.562,0,0,0,.5.815l3.63.321,1.911-4.622h-.692Z" transform="translate(-28.833 -141.708)" fill="#ff7816"/>
      <path id="Path_14190" data-name="Path 14190" d="M241.013,319.716l.272,3.588a.562.562,0,0,0,.815.5,5.844,5.844,0,0,0,3.486-5.351v-.692Z" transform="translate(-231.464 -305.036)" fill="#ff4b00"/>
      <path id="Path_14191" data-name="Path 14191" d="M105.714,261.28c-.6.3-1.191.6-1.753.876a.566.566,0,0,1-.652-.1l-3.169-3.169a.566.566,0,0,1-.1-.652c.281-.562.573-1.157.876-1.753.18-.348,1.483.427,1.663.067l3.068,3.068C105.287,259.8,106.063,261.1,105.714,261.28Z" transform="translate(-95.99 -246.193)" fill="#ff9f00"/>
      <path id="Path_14192" data-name="Path 14192" d="M150.626,304.954c-.6.3-1.191.6-1.753.876a.566.566,0,0,1-.652-.1l-1.584-1.584,2.393-2.382,1.528,1.528C150.2,303.471,150.974,304.774,150.626,304.954Z" transform="translate(-140.833 -289.841)" fill="#ff7816"/>
      <path id="Path_14193" data-name="Path 14193" d="M139.055,17.626a10.028,10.028,0,0,1-2.832,4.865,27.539,27.539,0,0,1-6.394,4.045l-2.393-2.393-2.4-2.4a27.3,27.3,0,0,1,4.045-6.394,10.029,10.029,0,0,1,4.865-2.832l1.135.416a3.607,3.607,0,0,0,3.562,3.562Z" transform="translate(-119.511 -12.045)" fill="#ececf1"/>
      <path id="Path_14194" data-name="Path 14194" d="M200.862,92.717a10.028,10.028,0,0,1-2.832,4.865,27.539,27.539,0,0,1-6.394,4.045l-2.393-2.393,8.7-8.708a3.649,3.649,0,0,0,2.506,1.056Z" transform="translate(-181.317 -86.789)" fill="#e2e2e7"/>
      <path id="Path_14195" data-name="Path 14195" d="M257.113,110.922a2.8,2.8,0,1,0-3.966,3.967v.011a2.809,2.809,0,1,0,3.966-3.978Z" transform="translate(-242.292 -105.73)" fill="#76e2f8"/>
      <path id="Path_14196" data-name="Path 14196" d="M368.089,5.581c-.09,0-.348-.011-.438-.011A4.72,4.72,0,0,1,362.987.907c0-.09-.011-.348-.011-.438A17.558,17.558,0,0,1,368,.019a.537.537,0,0,1,.539.539,17.975,17.975,0,0,1-.45,5.023Z" transform="translate(-348.544)" fill="#ff9f00"/>
      <path id="Path_14197" data-name="Path 14197" d="M228.005,255.91a.556.556,0,1,1,0-.787.543.543,0,0,1,0,.787Z" transform="translate(-218.146 -244.97)" fill="#5a5a5a"/>
      <path id="Path_14198" data-name="Path 14198" d="M403.9,10.118c-.09,0-.348-.011-.438-.011a4.713,4.713,0,0,1-3.281-1.382l4.011-4.011a.535.535,0,0,1,.157.382,17.974,17.974,0,0,1-.449,5.022Z" transform="translate(-384.356 -4.537)" fill="#ff7816"/>
      <path id="Path_14199" data-name="Path 14199" d="M278.125,135.911a2.814,2.814,0,0,1-3.966,0V135.9l3.966-3.967a2.808,2.808,0,0,1,0,3.978Z" transform="translate(-263.29 -126.708)" fill="#25d9f8"/>
      <path id="Path_14200" data-name="Path 14200" d="M232.338,260.242a.543.543,0,0,1-.787,0l.787-.787a.543.543,0,0,1,0,.787Z" transform="translate(-222.474 -249.298)" fill="#444"/>
    </g>
  </g>
</svg>
