<svg xmlns="http://www.w3.org/2000/svg" xmlns:xlink="http://www.w3.org/1999/xlink" width="26" height="26" viewBox="0 0 26 26">
  <defs>
    <clipPath id="clip-Tin_moi_1">
      <rect width="26" height="26"/>
    </clipPath>
  </defs>
  <g id="Tin_moi_1" data-name="Tin moi – 1" clip-path="url(#clip-Tin_moi_1)">
    <g id="Group_6018" data-name="Group 6018" transform="translate(22010.5 20413.832)">
      <g id="Group_6017" data-name="Group 6017" transform="translate(-22385.199 -21176.918)">
        <path id="Path_14242" data-name="Path 14242" d="M18.864,8.542c-.308-.227-.7-.51-.743-.7a2.328,2.328,0,0,1,.3-1.02c.271-.623.551-1.268.24-1.8s-1.019-.624-1.7-.7a2.316,2.316,0,0,1-1.017-.243,2.316,2.316,0,0,1-.242-1.02c-.077-.681-.156-1.385-.7-1.7s-1.182-.035-1.8.241a2.335,2.335,0,0,1-1.021.3c-.188-.05-.47-.435-.7-.743C11.086.623,10.642.02,10,.02S8.914.62,8.522,1.156c-.228.309-.51.7-.7.744A2.385,2.385,0,0,1,6.8,1.6c-.622-.276-1.267-.55-1.8-.241s-.624,1.019-.7,1.7A2.327,2.327,0,0,1,4.057,4.08a2.323,2.323,0,0,1-1.013.238c-.682.077-1.387.156-1.7.7S1.3,6.2,1.579,6.823a2.327,2.327,0,0,1,.3,1.024c-.05.188-.435.471-.743.7C.6,8.933,0,9.379,0,10.02s.6,1.087,1.137,1.48c.308.227.7.51.743.7a2.328,2.328,0,0,1-.3,1.02c-.271.623-.551,1.268-.24,1.8s1.019.623,1.7.7a2.316,2.316,0,0,1,1.017.243,2.315,2.315,0,0,1,.242,1.02c.077.681.156,1.385.7,1.7s1.181.031,1.8-.24a2.388,2.388,0,0,1,1.028-.3c.188.05.47.435.7.743.392.532.837,1.136,1.478,1.136s1.086-.6,1.478-1.136c.228-.309.51-.7.7-.744a2.348,2.348,0,0,1,1.021.3c.623.271,1.268.55,1.8.241s.624-1.019.7-1.7a2.327,2.327,0,0,1,.242-1.017,2.323,2.323,0,0,1,1.016-.241c.682-.077,1.387-.156,1.7-.7s.03-1.181-.24-1.8a2.327,2.327,0,0,1-.3-1.028c.05-.188.435-.471.743-.7C19.4,11.107,20,10.661,20,10.02S19.4,8.933,18.864,8.542Z" transform="translate(377.699 766.066)" fill="#ff295a"/>
        <line id="Line_301" data-name="Line 301" x2="8" transform="translate(384.5 779.5)" fill="none" stroke="#707070" stroke-width="0.3" opacity="0.05"/>
        <g id="Ellipse_1665" data-name="Ellipse 1665" transform="translate(382 770)" fill="none" stroke="#fff" stroke-width="1.5">
          <circle cx="6" cy="6" r="6" stroke="none"/>
          <circle cx="6" cy="6" r="5.25" fill="none"/>
        </g>
        <path id="Path_14222" data-name="Path 14222" d="M-21949.158-19587.037v3.377l-2.268,1.205" transform="translate(22337 20360)" fill="none" stroke="#fff" stroke-width="1"/>
      </g>
    </g>
  </g>
</svg>
